<svg version="1.0"
    xmlns="http://www.w3.org/2000/svg" width="700.000000pt" height="700.000000pt" viewBox="0 0 700.000000 700.000000" preserveAspectRatio="xMidYMid meet">
    <metadata>
Created by potrace 1.12, written by Peter Selinger 2001-2015
    </metadata>
    <g transform="translate(0.000000,700.000000) scale(0.100000,-0.100000)" fill="#000000" stroke="none">
        <path d="M2800 6941 c0 -88 -6 -91 -185 -106 -174 -15 -300 -38 -350 -63 -16
-8 -47 -30 -67 -48 -44 -39 -85 -58 -165 -74 -78 -16 -127 -43 -194 -104 -46
-43 -69 -56 -133 -75 -78 -22 -150 -61 -160 -86 -2 -7 -33 -33 -68 -56 -35
-23 -92 -70 -128 -103 -36 -34 -104 -89 -150 -123 -47 -34 -98 -78 -113 -97
-15 -20 -53 -55 -83 -78 -33 -25 -72 -68 -99 -109 -24 -38 -69 -96 -100 -129
-31 -33 -77 -93 -102 -133 -25 -40 -68 -91 -94 -115 -43 -38 -52 -53 -75 -129
-23 -75 -32 -91 -79 -137 -72 -69 -85 -98 -115 -249 -9 -44 -23 -72 -61 -119
-27 -34 -56 -83 -63 -108 -18 -61 -44 -233 -52 -344 -8 -114 -25 -136 -109
-136 l-55 0 0 -709 0 -709 61 -4 c38 -3 64 -10 70 -19 14 -23 28 -104 44 -259
19 -185 34 -228 100 -300 45 -49 55 -67 64 -116 31 -160 41 -185 106 -254 54
-57 64 -75 80 -135 24 -93 37 -117 85 -158 23 -19 62 -68 86 -109 25 -40 69
-98 98 -128 30 -30 79 -89 110 -132 30 -42 69 -86 86 -98 17 -12 54 -50 82
-84 33 -39 82 -81 139 -117 47 -31 106 -78 130 -104 24 -25 76 -66 114 -90 39
-24 86 -61 105 -81 21 -21 72 -54 127 -79 56 -26 112 -62 141 -89 58 -55 109
-78 221 -102 60 -13 97 -27 130 -51 25 -18 69 -44 96 -57 57 -28 213 -62 330
-71 165 -14 195 -31 195 -112 l0 -53 675 0 675 0 0 39 c0 72 -11 101 -44 118
-28 15 -91 17 -591 18 -605 0 -606 0 -668 54 -61 53 -135 77 -328 106 -153 23
-204 40 -254 86 -45 42 -108 68 -222 95 -87 20 -100 27 -148 80 -30 33 -65 55
-140 89 -76 34 -111 57 -147 94 -32 33 -65 56 -103 70 -31 12 -59 21 -64 21
-13 0 -48 44 -68 85 -10 21 -34 49 -53 61 -62 40 -95 71 -116 110 -11 21 -35
49 -54 61 -66 41 -100 75 -123 122 -18 36 -35 52 -76 75 -48 26 -56 36 -86
101 -24 52 -46 83 -75 106 -33 27 -54 58 -94 144 -37 78 -66 124 -98 155 -35
35 -48 57 -58 100 -7 30 -26 92 -42 137 -24 68 -37 88 -73 117 -52 43 -58 60
-85 241 -38 256 -50 287 -122 327 l-43 23 0 600 c0 695 1 702 69 775 50 53 60
81 81 225 21 136 45 256 57 280 6 11 25 36 44 55 43 45 77 124 100 229 16 78
22 89 73 146 31 34 74 98 96 141 23 46 61 100 90 129 32 33 56 68 68 102 21
58 33 72 97 105 42 22 64 46 101 115 9 17 42 44 72 62 42 24 63 44 82 79 23
43 40 58 118 106 15 9 43 41 62 70 33 51 49 63 133 96 18 7 53 36 77 64 38 45
59 59 154 100 90 39 116 55 145 90 32 39 44 46 118 66 148 40 190 59 239 110
52 54 54 54 284 90 203 31 236 45 273 120 l17 35 555 3 c542 4 698 -3 769 -30
14 -5 42 -26 62 -47 44 -45 103 -64 270 -86 161 -21 210 -38 269 -90 49 -44
87 -59 260 -105 32 -9 58 -26 90 -60 34 -36 72 -60 155 -99 83 -39 120 -63
150 -96 29 -33 59 -53 109 -73 65 -25 71 -31 102 -87 23 -42 44 -65 72 -80 62
-32 78 -47 109 -100 22 -37 44 -58 84 -80 45 -25 60 -41 87 -93 28 -52 42 -67
82 -87 54 -27 68 -45 96 -118 12 -33 32 -61 62 -85 35 -30 55 -60 99 -152 38
-81 67 -127 97 -156 34 -33 46 -54 61 -110 34 -129 66 -202 106 -243 43 -46
60 -93 89 -257 22 -118 50 -226 70 -265 7 -13 31 -40 53 -60 l41 -36 0 -584
c1 -632 0 -640 -53 -702 -55 -63 -80 -141 -111 -346 -26 -172 -32 -189 -80
-236 -45 -44 -69 -99 -100 -234 -20 -86 -24 -93 -70 -133 -37 -33 -58 -65 -93
-140 -31 -66 -62 -115 -96 -151 -34 -36 -60 -76 -78 -123 -27 -66 -31 -71 -89
-101 -52 -28 -64 -40 -89 -88 -23 -46 -38 -62 -83 -88 -31 -17 -62 -44 -71
-60 -28 -53 -73 -97 -120 -120 -34 -17 -53 -35 -77 -76 -28 -48 -39 -57 -111
-92 -61 -29 -87 -48 -103 -74 -18 -29 -47 -48 -139 -94 -85 -43 -124 -69 -148
-98 -29 -37 -39 -42 -138 -66 -138 -35 -199 -62 -230 -102 -30 -40 -47 -46
-245 -85 -194 -38 -274 -64 -300 -97 -29 -37 -26 -71 6 -79 33 -8 233 4 350
21 121 19 166 38 209 90 38 47 64 59 170 75 96 15 145 39 190 93 43 52 59 60
165 83 71 15 78 19 135 79 34 35 83 74 113 89 29 15 79 51 111 80 32 30 95 79
140 111 48 34 99 80 126 115 25 32 65 76 89 97 25 21 77 81 116 133 40 52 85
105 101 118 16 13 53 60 83 105 30 45 69 93 86 106 31 22 57 71 95 174 9 26
39 72 66 101 57 63 81 112 105 216 18 81 43 138 69 160 49 41 88 178 105 369
19 208 23 217 110 227 l60 7 0 678 0 679 -53 0 c-29 0 -61 6 -70 13 -20 14
-33 79 -47 247 -20 224 -43 299 -110 348 -37 28 -47 52 -66 159 -19 110 -35
143 -99 213 -46 50 -58 71 -81 147 -24 80 -31 93 -84 143 -31 30 -70 79 -85
108 -16 29 -65 94 -109 145 -45 51 -96 112 -114 137 -17 25 -51 60 -74 79 -24
19 -63 58 -87 88 -23 29 -77 77 -120 107 -42 29 -109 84 -149 120 -40 37 -92
78 -115 93 -23 14 -65 47 -92 73 -28 26 -72 54 -100 65 -101 37 -131 53 -180
97 -62 56 -94 73 -181 94 -82 20 -117 37 -163 77 -19 16 -50 36 -68 44 -58 24
-273 63 -383 70 -131 8 -150 22 -150 108 l0 55 -710 0 -710 0 0 -59z"></path>
        <path d="M3170 6524 c-72 -35 -80 -36 -200 -39 -241 -7 -475 -53 -540 -109
-51 -43 -105 -66 -202 -87 -109 -24 -132 -35 -179 -87 -40 -45 -84 -69 -182
-102 -83 -27 -102 -51 -102 -129 l0 -56 33 2 c56 2 232 74 261 106 63 70 83
85 128 96 157 39 239 71 273 107 53 54 78 63 231 79 159 17 216 25 407 60 146
27 154 30 227 85 84 64 89 65 201 40 67 -15 125 -36 179 -65 65 -35 101 -47
195 -63 173 -31 322 -51 450 -61 63 -5 123 -13 133 -16 10 -4 28 -26 42 -49
32 -54 46 -61 169 -91 141 -33 170 -46 201 -93 27 -40 41 -50 135 -85 77 -28
97 -42 166 -113 35 -36 86 -75 120 -92 37 -19 75 -49 102 -80 23 -28 66 -63
95 -79 43 -23 58 -39 87 -93 26 -49 48 -73 85 -97 38 -26 57 -47 82 -96 19
-39 59 -91 100 -133 68 -68 73 -78 126 -219 6 -16 33 -50 58 -75 48 -47 58
-70 114 -274 13 -45 27 -69 59 -101 24 -23 48 -57 54 -76 6 -19 23 -124 37
-233 31 -239 63 -388 104 -479 79 -174 80 -266 8 -424 -56 -124 -97 -328 -131
-656 -11 -109 -16 -131 -36 -152 -13 -14 -32 -27 -42 -31 -26 -8 -47 -54 -75
-163 -31 -123 -46 -153 -98 -196 -32 -26 -48 -49 -60 -88 -35 -106 -74 -172
-136 -226 -33 -29 -73 -77 -90 -106 -16 -28 -52 -71 -79 -94 -31 -26 -62 -65
-80 -101 -25 -50 -37 -62 -92 -92 -46 -25 -72 -48 -95 -83 -25 -37 -48 -57
-103 -86 -39 -20 -99 -64 -133 -97 -68 -65 -94 -81 -177 -107 -42 -13 -67 -30
-105 -70 -52 -55 -69 -63 -277 -120 -46 -12 -64 -24 -95 -60 -44 -53 -65 -61
-203 -75 -261 -27 -460 -70 -631 -135 -160 -61 -244 -58 -417 16 -51 22 -123
47 -160 55 -81 19 -365 60 -482 70 -109 9 -124 15 -155 62 -28 43 -65 63 -164
87 -119 30 -164 52 -204 99 -27 33 -50 49 -89 61 -106 34 -173 74 -225 133
-31 36 -74 71 -112 91 -40 21 -70 45 -85 69 -29 46 -44 59 -114 97 -42 23 -61
40 -77 72 -26 52 -49 77 -103 115 -31 22 -50 45 -71 92 -19 43 -47 81 -88 120
-57 54 -77 86 -132 218 -14 33 -31 54 -60 73 -49 30 -58 49 -107 217 -31 109
-43 135 -79 177 -50 59 -58 86 -81 291 -21 187 -74 427 -113 510 -36 77 -51
147 -51 240 0 79 11 116 57 188 18 29 40 81 48 115 27 118 75 478 75 563 0 47
5 94 10 105 6 11 30 28 54 40 53 25 68 52 102 188 31 128 34 133 88 171 38 26
47 39 66 97 35 106 76 174 130 215 35 27 57 55 81 103 18 37 44 74 57 83 65
45 94 79 101 117 22 123 -64 156 -152 58 -23 -26 -67 -72 -98 -103 -41 -43
-63 -76 -85 -131 -23 -57 -37 -78 -64 -95 -63 -39 -77 -59 -105 -144 -35 -111
-47 -132 -104 -188 -49 -47 -49 -47 -82 -191 -31 -134 -35 -145 -71 -179 -38
-36 -64 -98 -88 -207 -6 -27 -15 -135 -19 -240 -8 -174 -11 -196 -35 -255 -48
-115 -50 -127 -51 -350 l0 -215 43 -79 42 -80 -1 -130 c-1 -259 40 -462 114
-559 38 -50 59 -103 82 -215 19 -92 26 -106 85 -163 39 -38 53 -62 81 -140 21
-60 43 -103 60 -119 15 -14 43 -39 61 -56 19 -17 41 -52 51 -82 13 -38 30 -62
68 -94 28 -24 65 -63 82 -88 39 -58 209 -232 265 -271 23 -16 63 -51 90 -77
34 -34 63 -53 103 -65 60 -19 86 -41 113 -94 18 -36 47 -54 121 -73 81 -22
150 -55 174 -86 37 -47 69 -62 210 -95 132 -31 137 -33 183 -79 70 -70 163
-92 462 -110 188 -11 204 -14 261 -44 36 -19 56 -21 220 -21 99 0 218 -4 265
-9 l85 -8 62 42 63 43 192 2 c258 3 390 30 458 91 48 44 88 60 221 89 128 28
137 33 206 95 36 33 77 57 135 80 81 32 107 52 164 127 13 17 46 37 83 51 44
17 72 36 103 72 24 26 61 59 83 73 23 13 63 49 90 79 28 29 68 67 89 83 22 17
57 53 78 80 22 28 62 75 90 105 35 37 58 74 72 115 16 46 29 64 54 80 73 44
92 67 112 143 26 94 62 164 94 186 37 24 53 61 88 208 30 131 32 134 79 180
32 31 51 60 60 90 27 100 39 204 46 376 l6 183 40 66 c44 73 44 77 32 255 -5
80 -4 146 4 207 14 98 15 93 -55 221 -22 40 -24 56 -24 170 0 142 -13 273 -37
369 -20 81 -36 115 -79 163 -35 40 -44 65 -74 206 -23 110 -39 142 -85 178
-34 26 -74 98 -110 196 -15 44 -35 66 -99 111 -15 10 -34 42 -48 80 -16 47
-36 76 -78 117 -31 30 -69 74 -85 98 -16 24 -42 55 -59 68 -17 14 -70 62 -117
107 -214 203 -212 201 -271 220 -56 17 -108 62 -108 92 0 23 -50 54 -124 76
-93 28 -134 49 -176 94 -44 47 -68 57 -226 95 -117 28 -133 34 -169 69 -50 48
-63 55 -161 81 -62 17 -126 23 -294 30 -211 8 -217 9 -295 41 -100 40 -208 49
-302 25 -57 -15 -68 -15 -122 -1 -85 22 -108 19 -191 -21z"></path>
        <path d="M3295 6130 c-33 -4 -101 -8 -150 -9 -108 -1 -309 -26 -382 -46 -39
-11 -59 -25 -83 -54 -34 -44 -55 -53 -185 -76 -165 -29 -195 -45 -195 -104 1
-40 14 -62 47 -80 19 -9 43 -6 140 20 148 39 171 50 205 99 34 49 64 58 245
70 76 5 188 15 249 21 213 21 921 -7 1009 -41 16 -6 50 -31 75 -54 38 -35 59
-46 106 -56 210 -42 276 -68 338 -134 30 -31 61 -51 114 -71 52 -19 90 -43
130 -79 31 -29 93 -78 137 -109 45 -32 98 -80 118 -107 21 -28 65 -72 100 -99
47 -37 77 -73 122 -146 32 -53 77 -111 100 -129 47 -39 68 -76 91 -161 13 -48
27 -70 66 -108 57 -56 70 -83 97 -205 24 -108 36 -134 90 -187 49 -47 56 -70
70 -230 34 -396 34 -770 0 -1110 -13 -134 -23 -166 -60 -200 -44 -43 -66 -90
-89 -197 -34 -158 -57 -215 -98 -246 -51 -37 -58 -47 -89 -127 -17 -45 -43
-88 -73 -120 -25 -27 -72 -89 -103 -137 -33 -50 -79 -104 -110 -129 -28 -24
-86 -75 -127 -115 -42 -39 -111 -94 -154 -122 -43 -27 -89 -66 -102 -86 -28
-41 -58 -59 -152 -88 -54 -16 -76 -30 -112 -68 -56 -59 -81 -72 -198 -99 -115
-26 -146 -42 -197 -98 l-40 -45 -150 -13 c-380 -33 -584 -38 -900 -21 -165 10
-322 22 -349 28 -33 7 -62 22 -90 48 -56 50 -68 56 -172 75 -139 26 -230 66
-289 125 -34 34 -65 55 -99 66 -75 25 -105 42 -160 93 -28 26 -76 65 -106 87
-99 74 -328 310 -384 397 -29 45 -65 89 -80 97 -34 18 -69 77 -91 155 -14 48
-27 69 -70 111 -56 54 -62 67 -110 257 -15 60 -25 76 -71 122 -30 29 -54 56
-54 58 0 3 -11 121 -25 263 -37 382 -31 825 16 1123 12 76 20 94 65 141 27 28
38 53 54 120 11 47 32 123 47 170 22 73 33 92 78 137 37 37 58 70 74 113 12
34 42 84 66 113 24 29 74 94 111 145 41 57 91 112 126 139 32 24 77 68 98 97
22 30 67 74 99 99 32 25 64 60 71 78 13 30 12 33 -14 55 -19 17 -39 24 -70 24
-46 0 -72 -21 -114 -91 -15 -25 -37 -43 -70 -57 -57 -25 -74 -42 -100 -102
-22 -51 -33 -62 -93 -93 -33 -17 -49 -35 -73 -82 -20 -38 -43 -67 -66 -81 -65
-41 -77 -59 -110 -165 -30 -98 -35 -107 -91 -160 -32 -31 -59 -59 -59 -62 0
-22 -63 -305 -72 -321 -6 -12 -25 -37 -44 -56 -18 -19 -40 -54 -48 -76 -20
-57 -43 -261 -56 -500 -16 -279 8 -735 47 -909 14 -61 22 -76 64 -117 52 -50
51 -48 73 -183 25 -148 42 -192 94 -244 26 -26 53 -65 61 -87 34 -99 83 -191
109 -206 41 -25 74 -64 102 -121 16 -32 38 -60 60 -74 67 -42 91 -65 113 -111
18 -39 33 -53 84 -81 52 -29 66 -43 89 -87 24 -48 35 -58 98 -89 53 -26 80
-47 106 -82 30 -41 47 -53 115 -80 141 -56 152 -62 179 -104 34 -50 63 -62
196 -83 153 -24 174 -32 236 -86 48 -42 67 -51 128 -64 160 -35 338 -45 736
-41 525 4 645 22 725 109 34 37 48 45 90 51 200 26 302 60 345 115 20 25 47
45 78 56 121 44 196 79 211 97 58 72 81 92 138 119 55 26 67 36 89 80 15 29
38 56 56 66 74 41 94 60 121 115 24 52 33 61 82 82 54 24 66 38 95 105 20 48
38 70 86 108 36 27 48 48 85 144 39 99 49 115 86 141 56 40 66 66 98 232 29
153 38 176 84 220 38 35 55 89 78 244 25 171 25 924 -1 1089 -25 159 -38 198
-86 247 -40 40 -43 49 -64 156 -38 191 -49 218 -105 272 -39 37 -54 62 -72
115 -42 128 -64 168 -111 200 -33 23 -54 49 -80 99 -28 55 -42 72 -77 90 -60
31 -69 40 -100 102 -22 46 -35 59 -78 81 -67 33 -81 46 -105 97 -18 37 -31 49
-89 78 -37 19 -76 47 -86 61 -38 55 -61 71 -166 113 -92 37 -113 50 -144 88
-20 24 -44 48 -55 54 -10 5 -83 23 -163 39 -159 32 -173 37 -227 86 -20 18
-61 40 -90 49 -74 22 -275 43 -528 55 -233 11 -293 11 -385 0z"></path>
        <path d="M3275 5749 c-156 -11 -246 -26 -277 -47 -14 -9 -43 -29 -65 -44 -31
-22 -61 -31 -143 -43 -173 -24 -272 -60 -305 -112 -26 -39 -41 -49 -113 -73
-35 -11 -81 -32 -102 -45 -69 -43 -118 -157 -87 -199 14 -19 16 -19 56 13 26
21 74 43 124 58 73 22 88 31 133 79 59 63 90 77 212 99 154 26 211 48 262 100
27 28 55 47 75 50 67 10 882 14 918 4 23 -6 47 -24 68 -51 40 -50 84 -70 219
-98 120 -26 171 -48 201 -89 28 -39 87 -70 173 -92 71 -18 126 -59 126 -93 0
-16 51 -61 108 -95 22 -13 52 -43 67 -67 15 -24 46 -55 69 -68 55 -32 81 -61
105 -119 14 -31 31 -54 52 -65 65 -35 87 -61 110 -130 18 -53 33 -77 74 -117
29 -27 57 -59 63 -70 6 -12 20 -71 32 -133 33 -175 55 -238 104 -291 24 -25
46 -59 50 -76 12 -49 16 -733 5 -805 -11 -69 -33 -124 -74 -178 -34 -48 -64
-131 -85 -244 -22 -113 -37 -146 -80 -173 -39 -25 -75 -84 -91 -150 -19 -78
-36 -103 -87 -129 -33 -17 -54 -36 -71 -67 -31 -56 -57 -86 -102 -115 -20 -12
-54 -49 -75 -80 -31 -45 -52 -64 -99 -88 -45 -23 -67 -43 -90 -79 -31 -48 -57
-65 -160 -102 -31 -12 -71 -39 -105 -71 -64 -61 -76 -66 -191 -88 -140 -26
-233 -60 -280 -100 -65 -55 -95 -60 -354 -58 -126 1 -277 -3 -335 -9 -95 -9
-113 -8 -185 10 -46 13 -108 38 -147 62 -82 50 -176 83 -290 103 -104 18 -139
35 -167 79 -23 38 -73 68 -148 90 -76 23 -89 32 -118 86 -21 37 -40 56 -86 81
-42 24 -68 48 -94 86 -21 32 -50 61 -72 73 -48 24 -74 53 -106 116 -16 32 -41
61 -71 82 -26 18 -51 45 -58 60 -48 118 -68 152 -111 187 -51 42 -79 102 -92
196 -4 30 -18 93 -32 139 -18 66 -33 94 -63 127 -21 23 -43 59 -48 81 -12 46
-23 816 -12 892 6 47 12 58 53 95 53 47 76 98 102 226 23 114 37 145 93 204
28 29 56 71 65 99 9 26 24 68 33 93 12 33 26 51 48 63 65 34 92 71 105 143 16
94 -7 143 -65 136 -22 -2 -36 -17 -70 -73 -23 -38 -67 -94 -97 -125 -63 -63
-77 -87 -106 -187 -18 -61 -28 -78 -62 -105 -63 -51 -99 -141 -114 -283 -14
-142 -15 -146 -56 -190 -21 -23 -45 -57 -53 -76 -25 -59 -39 -227 -40 -454 0
-318 25 -506 75 -551 34 -30 57 -91 69 -189 7 -49 23 -125 37 -169 20 -65 33
-86 72 -125 34 -33 53 -62 66 -101 27 -83 40 -104 114 -185 38 -42 83 -102
100 -135 23 -43 48 -72 87 -101 31 -22 71 -65 89 -94 30 -46 45 -59 112 -91
55 -26 94 -54 133 -95 59 -62 111 -90 200 -108 62 -13 76 -22 109 -69 41 -59
120 -87 278 -102 116 -10 133 -17 183 -70 45 -49 69 -54 321 -76 176 -15 229
-15 360 -6 200 16 275 32 384 87 73 37 109 48 192 60 162 24 228 49 286 106
33 33 64 53 96 63 76 22 126 52 197 116 37 33 95 77 131 96 35 20 71 47 81 61
38 55 86 104 124 125 31 18 48 39 81 102 27 52 62 100 99 136 62 61 89 112
108 204 12 59 26 79 83 121 42 31 75 123 86 249 12 119 27 162 71 195 38 27
56 91 69 241 22 250 24 371 7 516 -20 171 -39 248 -72 291 -39 51 -53 95 -69
211 -8 59 -25 139 -36 177 -18 58 -29 77 -70 115 -39 36 -53 58 -70 110 -27
83 -50 120 -121 197 -31 34 -71 87 -89 118 -21 37 -51 70 -86 96 -30 22 -70
65 -89 95 -30 46 -46 60 -112 93 -49 25 -99 60 -137 98 -59 59 -97 79 -195
104 -34 8 -57 24 -95 65 -60 65 -118 87 -294 110 -124 16 -151 27 -194 73 -36
39 -74 49 -255 66 -160 16 -300 17 -487 4z"></path>
        <path d="M3421 5327 c-38 -13 -77 -59 -67 -76 10 -16 70 -13 145 7 71 19 84
33 49 56 -34 21 -88 27 -127 13z"></path>
        <path d="M3673 5260 c-28 -11 -28 -16 -3 -58 30 -48 72 -69 169 -82 134 -18
363 -60 391 -71 14 -6 46 -34 72 -63 33 -37 70 -64 123 -90 52 -26 86 -52 112
-83 25 -30 59 -56 102 -76 59 -29 65 -35 91 -92 16 -35 41 -72 59 -86 17 -13
44 -34 60 -47 17 -12 35 -39 42 -60 43 -137 70 -190 109 -217 54 -37 67 -73
90 -237 11 -79 29 -170 40 -204 24 -70 66 -117 101 -112 24 3 24 6 27 122 3
136 -19 323 -48 398 -10 28 -41 73 -68 102 -39 41 -55 68 -71 120 -11 36 -26
76 -32 89 -21 40 -119 147 -250 274 -11 10 -45 45 -77 78 -102 105 -179 175
-207 185 -15 6 -58 17 -97 26 -65 15 -72 19 -104 64 -48 67 -89 82 -284 104
-174 21 -321 27 -347 16z"></path>
        <path d="M2947 5244 c-89 -16 -153 -45 -162 -73 -14 -47 43 -91 117 -91 63 0
274 46 325 71 42 20 74 61 60 75 -14 14 -127 34 -192 33 -38 0 -105 -7 -148
-15z"></path>
        <path d="M2319 4902 c-14 -9 -70 -63 -125 -119 -242 -249 -253 -265 -269 -363
-10 -61 -29 -95 -66 -117 -17 -10 -39 -32 -49 -49 -41 -65 -74 -301 -68 -489
3 -124 12 -135 69 -94 41 29 55 66 69 175 16 126 60 355 72 379 6 11 34 43 62
70 32 31 68 82 94 132 28 54 56 92 83 114 26 20 51 55 72 98 28 59 38 69 84
91 75 36 93 56 93 102 0 72 -64 109 -121 70z"></path>
        <path d="M3190 4895 c-8 -2 -49 -9 -90 -15 -90 -15 -141 -39 -170 -80 -25 -35
-73 -61 -145 -80 -86 -22 -114 -40 -149 -95 -24 -36 -47 -58 -77 -72 -54 -26
-80 -54 -109 -115 -17 -37 -33 -54 -72 -75 -56 -30 -64 -43 -103 -163 -23 -68
-38 -94 -77 -137 -86 -90 -103 -198 -95 -620 6 -373 24 -472 91 -516 32 -22
68 -85 96 -169 22 -69 39 -90 100 -131 22 -14 46 -45 65 -82 27 -54 36 -62 97
-92 53 -26 72 -41 87 -70 27 -54 46 -67 141 -98 109 -35 133 -48 165 -89 55
-73 187 -96 542 -96 246 0 444 16 509 40 15 6 53 35 84 64 49 45 72 57 146 81
89 28 108 42 148 105 12 20 45 47 76 65 46 25 60 40 86 90 19 38 42 67 64 80
62 37 86 69 110 140 30 93 66 162 91 178 33 20 59 71 75 149 21 100 30 533 15
706 -16 180 -30 222 -96 288 -48 47 -57 63 -81 140 -27 89 -45 116 -102 146
-18 10 -40 32 -50 49 -41 75 -60 95 -117 124 -41 21 -65 40 -76 62 -36 73 -46
80 -141 112 -90 30 -168 72 -168 91 0 18 -71 51 -142 66 -55 12 -151 17 -393
19 -176 2 -327 2 -335 0z m640 -172 c124 -17 157 -31 198 -82 25 -31 51 -46
139 -81 85 -34 115 -52 143 -83 41 -45 123 -129 172 -172 19 -18 55 -75 85
-137 29 -59 66 -122 81 -140 42 -48 49 -65 66 -159 28 -153 37 -318 26 -492
-18 -289 -28 -332 -97 -398 -38 -36 -54 -61 -77 -125 -35 -97 -71 -161 -100
-176 -11 -6 -65 -53 -118 -105 -83 -80 -111 -100 -191 -138 -52 -24 -116 -62
-141 -84 -52 -45 -78 -54 -227 -78 -179 -29 -523 -20 -700 18 -40 9 -64 23
-108 63 -44 40 -77 59 -156 89 -55 21 -107 43 -115 50 -9 7 -35 40 -58 73 -24
34 -63 76 -88 94 -60 42 -95 92 -134 189 -22 56 -43 90 -72 117 -53 48 -65 80
-82 216 -31 240 -29 455 5 698 14 92 20 104 79 157 30 27 53 58 65 90 37 101
86 177 138 218 28 23 71 67 96 99 39 51 56 64 154 112 65 32 130 72 157 98 54
51 81 58 290 80 158 17 411 12 570 -11z"></path>
        <path d="M3443 3779 c-19 -5 -50 -31 -77 -63 -26 -29 -64 -66 -85 -81 -40 -27
-71 -84 -71 -128 0 -59 21 -98 78 -143 31 -24 68 -60 82 -79 31 -43 75 -65
130 -65 56 0 70 9 179 117 93 93 95 95 99 149 6 70 -9 105 -64 147 -25 19 -60
56 -80 81 -19 25 -42 50 -52 55 -28 15 -105 21 -139 10z"></path>
        <path d="M5255 3463 c-15 -32 -44 -81 -66 -109 -44 -57 -63 -126 -99 -364 -27
-176 -34 -196 -89 -255 -26 -27 -68 -88 -94 -135 -32 -60 -62 -99 -100 -132
-40 -35 -60 -61 -73 -98 -21 -59 -36 -74 -106 -109 -31 -16 -62 -41 -75 -61
-40 -61 -59 -74 -144 -104 -118 -41 -152 -59 -184 -101 -37 -49 -63 -59 -246
-89 -207 -35 -249 -48 -312 -101 -28 -24 -73 -54 -99 -66 -27 -12 -48 -28 -48
-35 0 -20 43 -17 116 5 38 12 120 24 214 30 286 20 351 38 439 116 50 45 74
58 145 79 77 24 89 31 128 77 24 28 59 59 79 69 55 29 228 192 271 256 22 32
58 76 82 98 42 40 59 75 86 176 9 32 25 58 61 90 84 79 88 96 118 487 6 77 20
163 32 206 21 70 21 127 0 127 -5 0 -21 -26 -36 -57z"></path>
        <path d="M1739 3323 c-25 -64 17 -451 59 -544 10 -24 40 -64 64 -89 38 -38 50
-60 72 -132 24 -79 31 -91 76 -129 27 -22 61 -60 76 -83 45 -67 193 -223 255
-266 31 -21 64 -51 73 -65 26 -40 85 -73 165 -91 65 -14 79 -22 120 -64 48
-50 73 -66 125 -81 43 -13 345 -43 436 -44 l75 0 3 31 c2 22 -5 40 -23 62 -29
35 -66 48 -165 57 -89 9 -298 44 -336 56 -16 5 -51 31 -76 57 -30 33 -78 65
-145 100 -79 41 -105 60 -127 92 -20 31 -44 50 -91 71 -72 34 -80 42 -115 112
-17 33 -42 62 -70 82 -46 32 -56 48 -112 175 -19 43 -53 97 -80 127 -60 66
-72 109 -122 416 -16 98 -31 128 -79 157 -42 26 -45 25 -58 -7z"></path>
    </g>
</svg>